<?xml version="1.0" standalone="no"?>
<!DOCTYPE svg PUBLIC "-//W3C//DTD SVG 20010904//EN"
 "http://www.w3.org/TR/2001/REC-SVG-20010904/DTD/svg10.dtd">
<svg version="1.0" xmlns="http://www.w3.org/2000/svg"
 width="900.000000pt" height="520.000000pt" viewBox="0 0 900.000000 520.000000"
 preserveAspectRatio="xMidYMid meet">

<g transform="translate(0.000000,520.000000) scale(0.100000,-0.100000)"
fill="#000000" stroke="none">
<path d="M4280 4186 c-352 -51 -658 -204 -910 -456 -229 -229 -377 -509 -442
-835 -29 -145 -31 -432 -5 -570 94 -487 375 -882 797 -1120 108 -61 237 -115
293 -123 30 -4 43 0 62 18 25 23 25 26 25 191 l0 167 -37 -9 c-60 -14 -204
-10 -268 6 -68 18 -143 63 -180 107 -14 16 -44 68 -66 115 -40 84 -84 137
-194 231 -37 31 -38 34 -21 50 25 25 101 20 162 -11 54 -28 114 -86 162 -159
68 -100 154 -148 266 -148 66 0 176 27 181 44 2 6 11 37 21 69 9 32 30 76 46
98 31 44 31 44 -46 54 -89 12 -200 46 -285 86 -64 32 -101 58 -161 117 -129
128 -186 278 -197 512 -8 190 28 322 121 443 l36 48 -16 81 c-21 104 -11 222
28 322 11 28 12 29 75 23 77 -8 180 -48 293 -114 74 -44 88 -49 115 -42 186
55 545 55 732 0 27 -8 39 -5 80 21 135 86 289 143 365 136 31 -3 34 -6 52 -68
23 -80 27 -245 8 -311 l-14 -46 38 -49 c94 -123 130 -255 121 -443 -10 -222
-67 -378 -182 -499 -34 -37 -91 -84 -126 -105 -76 -45 -221 -93 -328 -109 -42
-6 -77 -12 -79 -13 -1 -1 13 -25 32 -53 56 -84 66 -151 66 -455 0 -263 0 -264
23 -285 33 -31 70 -28 173 14 202 81 376 196 534 354 323 323 486 742 467
1199 -10 240 -60 430 -167 646 -220 442 -623 751 -1115 855 -130 27 -399 35
-535 16z"/>
<path d="M3467 1924 c-11 -11 3 -24 24 -24 12 0 19 5 17 13 -5 14 -31 21 -41
11z"/>
<path d="M3533 1864 c-3 -8 -1 -20 5 -26 15 -15 43 -2 36 16 -8 21 -34 28 -41
10z"/>
<path d="M3590 1782 c0 -24 14 -42 32 -42 29 0 20 44 -9 48 -13 2 -23 -1 -23
-6z"/>
<path d="M3670 1680 c0 -24 32 -44 48 -28 16 16 -4 48 -28 48 -13 0 -20 -7
-20 -20z"/>
<path d="M3774 1619 c-9 -14 24 -41 46 -37 8 2 15 12 15 23 0 23 -48 34 -61
14z"/>
<path d="M4043 1623 c-7 -2 -13 -14 -13 -24 0 -16 6 -20 28 -17 19 2 27 9 27
23 0 20 -19 28 -42 18z"/>
<path d="M3905 1600 c-4 -7 -1 -19 8 -27 19 -19 59 -8 55 15 -4 20 -53 29 -63
12z"/>
</g>
</svg>
