<?xml version="1.0" standalone="no"?>
<!DOCTYPE svg PUBLIC "-//W3C//DTD SVG 20010904//EN"
 "http://www.w3.org/TR/2001/REC-SVG-20010904/DTD/svg10.dtd">
<svg version="1.0" xmlns="http://www.w3.org/2000/svg"
 width="512.000000pt" height="512.000000pt" viewBox="0 0 512.000000 512.000000"
 preserveAspectRatio="xMidYMid meet">

<g transform="translate(0.000000,512.000000) scale(0.100000,-0.100000)"
fill="#000000" stroke="none">
<path d="M660 5104 c-45 -20 -68 -41 -91 -86 -18 -36 -19 -102 -19 -2458 0
-2356 1 -2422 19 -2458 23 -46 46 -67 94 -87 32 -13 245 -15 1899 -15 1786 0
1865 1 1903 19 48 22 69 44 90 94 13 32 15 239 15 1832 0 1591 -2 1800 -15
1833 -22 51 -1263 1296 -1320 1323 -38 18 -88 19 -1290 18 -1091 0 -1254 -2
-1285 -15z m2952 -941 c291 -291 528 -531 528 -536 0 -4 -240 -6 -532 -5
l-533 3 -3 533 c-1 292 1 532 5 532 5 0 245 -237 535 -527z m-1547 -1375 c30
-14 25 -2 286 -605 112 -260 206 -472 209 -473 3 0 106 233 229 518 163 376
231 524 252 545 29 27 31 27 159 27 122 0 130 -1 157 -24 l28 -24 3 -804 c2
-591 -1 -810 -9 -831 -18 -44 -56 -57 -161 -57 -75 0 -99 4 -125 20 -18 11
-34 21 -35 22 -1 2 -5 214 -8 473 l-5 470 -170 -383 c-115 -260 -177 -390
-193 -403 -37 -28 -208 -28 -244 1 -18 14 -77 135 -194 399 l-169 380 -5 -457
c-3 -251 -9 -465 -14 -475 -16 -34 -60 -47 -156 -47 -103 0 -141 14 -159 57
-8 21 -11 240 -9 831 l3 804 28 24 c26 23 35 24 152 24 73 0 135 -5 150 -12z"/>
</g>
</svg>
